<?xml version="1.0" encoding="utf-8"?>
<!-- Generator: Adobe Illustrator 22.0.0, SVG Export Plug-In . SVG Version: 6.00 Build 0)  -->
<svg version="1.1" id="Livello_1" xmlns="http://www.w3.org/2000/svg" xmlns:xlink="http://www.w3.org/1999/xlink" x="0px" y="0px"
	 viewBox="0 0 1085.7574463 116.649025" style="enable-background:new 0 0 1085.7574463 116.649025;" xml:space="preserve">
<style type="text/css">
	.st0{fill:#FFFFFF;}
</style>
<g>
	<path class="st0" d="M80.9995193,96.7709885v19.8780365H0V0h79.520813v19.8780346H22.6750088v28.0955029h49.1248474v18.3993263
		H22.6750088v30.3981247H80.9995193z"/>
	<path class="st0" d="M193.0498047,86.5804596c0,4.930481-0.9843597,9.2582092-2.957428,12.9831696
		c-1.9708862,3.7249603-4.6811371,6.847168-8.1329041,9.3622742c-3.4496002,2.5237808-7.4499359,4.4361343-11.9923096,5.750061
		c-4.5467072,1.3139267-9.3926239,1.9730606-14.5399323,1.9730606H99.0714493V0h62.4332504
		c4.0523529,0,7.723114,0.8759518,11.0079346,2.6278553c3.2869873,1.7519035,6.0796204,4.0241747,8.3800812,6.8168125
		s4.0783844,5.9712162,5.340271,9.5313969c1.2575531,3.5601807,1.888504,7.1463795,1.888504,10.7585964
		c0,5.6980209-1.4245148,11.0361252-4.271347,16.0186424c-2.8490143,4.9868546-7.0119629,8.6814613-12.4866486,11.0924988
		c6.6802063,1.9687233,11.9641113,5.5028839,15.8538513,10.5981522
		C191.1049194,72.5348816,193.0498047,78.9180527,193.0498047,86.5804596z M121.74646,19.3836861v29.4094315h30.2290039
		c3.833374,0,7.0921783-1.3139305,9.7763977-3.9417839c2.6820679-2.6278572,4.0241852-6.2444077,4.0241852-10.8453255
		c0-4.4881668-1.2315369-8.0483475-3.6946106-10.6762028c-2.4652405-2.6321926-5.5050507-3.9461193-9.1194458-3.9461193H121.74646z
		 M170.2121735,82.3091125c0-2.0771332-0.3555756-4.07621-1.0667572-5.9972305
		c-0.7133331-1.9123535-1.6716766-3.5862045-2.8750305-5.0085373c-1.2076721-1.4223404-2.6300201-2.5454636-4.271347-3.3693848
		c-1.6434937-0.8195724-3.451767-1.2315292-5.4226532-1.2315292H121.74646v30.7233582h33.6807709
		c2.0792999,0,4.0241852-0.3816071,5.8324585-1.149147c1.8061066-0.76754,3.3672028-1.8342972,4.6811371-3.2045975
		c1.3139343-1.3659668,2.35466-2.9834366,3.1222076-4.8480911
		C169.8283997,86.3636398,170.2121735,84.3949203,170.2121735,82.3091125z"/>
	<path class="st0" d="M211.1195526,116.649025V0h51.5901031c5.366272,0,10.3227844,1.1231263,14.8694763,3.3650424
		c4.5423889,2.2462528,8.4603271,5.2036734,11.7473145,8.8722639c3.2848206,3.6729269,5.8584595,7.8315296,7.7209473,12.4888172
		s2.7926331,9.3362579,2.7926331,14.0455818c0,7.5583382-1.8884888,14.4315224-5.6676636,20.6195602
		s-8.9004517,10.6545258-15.3616943,13.3907852l26.6167908,43.8669739h-25.4654541l-23.8241577-39.1012726h-22.343277v39.1012726
		H211.1195526z M233.7945709,57.6653786h28.4228973c2.0793152,0,4.0241699-0.4900093,5.8324585-1.4787102
		c1.8060913-0.9843597,3.3671875-2.3243065,4.6811218-4.0241737c1.3161011-1.6955299,2.3546753-3.6989441,3.1222229-5.9972343
		c0.7653503-2.2982903,1.1513062-4.7656975,1.1513062-7.3935547c0-2.7362633-0.440155-5.2557106-1.3161011-7.5583344
		c-0.8781128-2.2982903-2.0532837-4.2973671-3.5319824-5.9972343c-1.4787292-1.6955299-3.1785889-3.0094585-5.0931091-3.9417839
		c-1.916687-0.9279881-3.8615417-1.3963184-5.8324585-1.3963184h-27.4363556V57.6653786z"/>
	<path class="st0" d="M320.7067566,116.649025V0h22.6750183v116.649025H320.7067566z"/>
</g>
<g>
	<path class="st0" d="M401.1208801,40.9832687v5.3727951h-21.8901367V14.830471h21.4911804v5.3727932h-15.3638611v7.5930271
		h13.2758789v4.9738464h-13.2758789v8.213131H401.1208801z"/>
	<path class="st0" d="M413.6855774,46.7983742c-2.5151062,0-4.3884277-0.8325882-5.6156311-2.5064354
		c-1.2293701-1.6738472-1.8429565-4.1672745-1.8429565-7.4846191V23.2213955h3.0181274v13.0568867
		c0,5.2383614,1.7909241,7.8575439,5.3727722,7.8575439c0.8889771,0,1.7605896-0.1474342,2.6213684-0.4423103
		c0.8564453-0.2992096,1.6499939-0.7285156,2.374176-1.2879105c0.7263489-0.5637321,1.3768005-1.2315369,1.9535522-1.9990768
		c0.5788879-0.7718773,1.0450439-1.6434937,1.4006348-2.6191826V23.2213955h3.0181274v19.2275753
		c0,0.8282509,0.3555908,1.244545,1.0667725,1.244545v2.6625481c-0.3555908,0.0607071-0.6439514,0.0867271-0.8672791,0.0867271
		c-0.2211609,0-0.3772888,0-0.466156,0c-0.7090149-0.0260201-1.2879333-0.2775307-1.7302246-0.7545319
		c-0.4444885-0.4726677-0.6678162-1.1101189-0.6678162-1.9080162v-2.6625443
		c-1.0060425,1.8039398-2.374176,3.2045937-4.1065674,4.1932907
		C417.4820862,46.3040237,415.6391296,46.7983742,413.6855774,46.7983742z"/>
	<path class="st0" d="M444.8577576,25.8839417c-2.04245,0.060709-3.8182068,0.6244411-5.3294373,1.6868572
		c-1.5090637,1.0667534-2.5758057,2.5324554-3.1959229,4.3971043v14.3881607h-3.0202942V23.2213955h2.8424988v5.5505848
		c0.8586121-1.7779217,2.012085-3.1655674,3.462616-4.1759472c1.450531-1.0060444,3.005127-1.5090656,4.6637878-1.5090656
		c0.2363281,0,0.427124,0.0173454,0.5767517,0.0433636V25.8839417z"/>
	<path class="st0" d="M458.0924377,46.7983742c-1.6890259,0-3.2284546-0.316555-4.6182556-0.9540062
		c-1.3919983-0.6331139-2.5975037-1.5003929-3.6187439-2.5974998c-1.0233765-1.0927734-1.8147888-2.367672-2.3763428-3.8160286
		c-0.5637207-1.4526939-0.8434143-2.9791031-0.8434143-4.5748978c0-1.6304817,0.2883606-3.1699028,0.8651123-4.6182594
		c0.5767212-1.452692,1.3768005-2.7232571,2.3980103-3.820364c1.0212402-1.0927715,2.2267456-1.9687233,3.6187134-2.6191826
		c1.3919983-0.6504593,2.9162292-0.9756889,4.5749207-0.9756889c1.6564941,0,3.1894226,0.3252296,4.5943909,0.9756889
		c1.4049988,0.6504593,2.6192017,1.5264111,3.6425781,2.6191826c1.019043,1.0971069,1.8212891,2.367672,2.3980408,3.820364
		c0.5767212,1.4483566,0.8629456,2.9877777,0.8629456,4.6182594c0,1.5957947-0.2818909,3.1222038-0.8412781,4.5748978
		c-0.5637207,1.4483566-1.3529663,2.7232552-2.3763428,3.8160286c-1.019043,1.0971069-2.2332458,1.964386-3.6425781,2.5974998
		C461.3251953,46.4818192,459.7792969,46.7983742,458.0924377,46.7983742z M449.6993408,34.8993073
		c0,1.3052559,0.2211609,2.5107727,0.6656189,3.6208878c0.4444885,1.1101189,1.0429077,2.0858078,1.7974548,2.9270668
		c0.7566833,0.8456001,1.6434937,1.5047302,2.6647034,1.9773979c1.0212402,0.4726677,2.1096497,0.7111664,3.2653198,0.7111664
		c1.1534729,0,2.2419128-0.242836,3.2631226-0.7328491c1.023407-0.4900131,1.916687-1.1534805,2.6842346-1.9990768
		c0.7718811-0.8412628,1.3789673-1.8256226,1.8212891-2.9530869c0.4466553-1.123127,0.6677856-2.3373146,0.6677856-3.6382332
		c0-1.2749023-0.2211304-2.4804192-0.6677856-3.6208916c-0.4423218-1.1404705-1.049408-2.1291695-1.8212891-2.9747658
		c-0.7675476-0.8455982-1.6608276-1.5090656-2.6842346-1.9990788c-1.0212097-0.4856758-2.1096497-0.732851-3.2631226-0.732851
		c-1.1556702,0-2.2354126,0.2471752-3.2414551,0.732851c-1.0082092,0.4900131-1.8950195,1.1621532-2.6647339,2.0207596
		s-1.3768005,1.8603134-1.8212891,2.9964485C449.9205017,32.3755264,449.6993408,33.5983887,449.6993408,34.8993073z"/>
	<path class="st0" d="M486.9533081,46.7983742c-1.955719,0-3.6772766-0.4943504-5.1733093-1.4873848
		c-1.4960632-0.9886971-2.7015991-2.2419128-3.6209106-3.7509804v14.2537308h-3.0181274V23.2213955h2.7102661v4.4838314
		c0.9453125-1.4483547,2.1725159-2.6278553,3.6859131-3.5298252c1.5090637-0.9019699,3.1525574-1.3529549,4.9261475-1.3529549
		c1.6001282,0,3.0658264,0.3339024,4.3970947,0.9973717c1.3312988,0.6678047,2.4847717,1.5567646,3.4647827,2.6668816
		c0.975708,1.110117,1.7388916,2.3893547,2.2852783,3.8377094c0.5463867,1.452692,0.8195801,2.9487495,0.8195801,4.4881706
		c0,1.6261482-0.2514954,3.1655655-0.7545166,4.6182594c-0.5030212,1.4483566-1.2185364,2.7232552-2.1508484,3.8160286
		c-0.9323425,1.0971069-2.04245,1.964386-3.3303528,2.5974998
		C489.9064026,46.4818192,488.4927368,46.7983742,486.9533081,46.7983742z M486.1076965,44.1358261
		c1.2445679,0,2.3763428-0.2645187,3.3997498-0.7978935c1.019043-0.5333786,1.8906555-1.2358742,2.6191711-2.111824
		c0.7241821-0.8716164,1.2792358-1.8646507,1.6651917-2.9747696c0.3815918-1.1101151,0.5767212-2.2549248,0.5767212-3.4387589
		c0-1.244545-0.2211609-2.4283829-0.6677856-3.5558453c-0.4423218-1.123127-1.049408-2.1161613-1.8212891-2.9747677
		c-0.7675476-0.8586063-1.6781921-1.5394192-2.7276001-2.0424404c-1.0537415-0.5030231-2.1855469-0.7545338-3.3997192-0.7545338
		c-0.7675476,0-1.5741272,0.1561108-2.4197083,0.4683304c-0.8412781,0.3078842-1.6261597,0.7241783-2.3503418,1.2402096
		c-0.7285156,0.5203667-1.3486023,1.1274624-1.868988,1.8212852c-0.5160217,0.6981602-0.8325806,1.4310112-0.95401,2.1985531
		v7.1073494c0.3555908,0.8282547,0.8065796,1.5957947,1.3572998,2.3069649
		c0.5463867,0.7111664,1.1665039,1.3269348,1.8646545,1.842968c0.6938171,0.5203667,1.4440002,0.9236526,2.2419128,1.2228622
		C484.4208374,43.9883919,485.249115,44.1358261,486.1076965,44.1358261z"/>
	<path class="st0" d="M513.0193481,46.7983742c-1.6868286,0-3.2349243-0.316555-4.6399231-0.9540062
		c-1.4049988-0.6331139-2.6278381-1.5090675-3.6642456-2.6191826c-1.0364075-1.1101189-1.8429565-2.3893547-2.4197083-3.8420448
		c-0.5767517-1.4483566-0.8672791-3.0007858-0.8672791-4.6616249c0-1.6261482,0.2905273-3.1612339,0.8672791-4.5965805
		s1.3746338-2.6928997,2.3980103-3.7726631c1.023407-1.0797615,2.2419434-1.9383678,3.6642761-2.575819
		c1.4179993-0.6374493,2.957428-0.9540062,4.6182556-0.9540062c1.6868286,0,3.2349243,0.3165569,4.6399536,0.9540062
		c1.4049683,0.6374512,2.6104736,1.5047302,3.6165161,2.5975018c1.0060425,1.0971069,1.7909546,2.3546619,2.3546753,3.7726631
		c0.5637207,1.4223366,0.8455811,2.9314041,0.8455811,4.5315323c0,0.2385025,0,0.4726677,0,0.7111702
		c0,0.2341652-0.017334,0.3989487-0.0476685,0.4856758h-19.8043213c0.0910645,1.244545,0.3772583,2.3936882,0.8672791,3.4430962
		s1.1188049,1.9600525,1.886322,2.7319298c0.7718811,0.76754,1.6521912,1.3703003,2.6452026,1.795269
		c0.9887085,0.4293022,2.046814,0.646122,3.1742554,0.646122c0.7371826,0,1.4786987-0.1040726,2.2202148-0.3122215
		c0.7371826-0.2038116,1.4180298-0.4856758,2.0424805-0.841259c0.6200562-0.355587,1.1838379-0.79356,1.6868286-1.3095932
		c0.5030518-0.5203667,0.8889771-1.0884361,1.1535034-1.7128754l2.6191406,0.7111702
		c-0.3555908,0.8586044-0.8585815,1.634819-1.5090332,2.3329773c-0.6504517,0.6938248-1.4050293,1.3009186-2.2636108,1.8212891
		c-0.8585815,0.5160294-1.8082886,0.914978-2.840332,1.1968422C515.22229,46.6596107,514.1425171,46.7983742,513.0193481,46.7983742
		z M521.5447388,33.5680351c-0.086731-1.2445488-0.3772583-2.3763466-0.8673096-3.3953991
		c-0.4856567-1.0233898-1.1101074-1.903677-1.864624-2.6452007c-0.7545166-0.7371864-1.6261597-1.3139286-2.6192017-1.7302208
		c-0.993042-0.4162941-2.0510864-0.6201057-3.1742554-0.6201057c-1.1274414,0-2.1898499,0.2038116-3.1958923,0.6201057
		c-1.0060425,0.4162922-1.886322,0.9930344-2.6452026,1.7302208c-0.7545471,0.7415237-1.3616333,1.6304836-1.8169556,2.6668835
		c-0.4596558,1.0363979-0.7328491,2.1595249-0.8239136,3.3737164H521.5447388z"/>
	<path class="st0" d="M535.3952026,46.7983742c-1.0927734,0-2.1075439-0.1821289-3.039856-0.5550575
		c-0.932312-0.3685951-1.7475586-0.8802872-2.4414062-1.5307465c-0.6981201-0.6504593-1.2358398-1.4136658-1.6217651-2.2852821
		c-0.3859863-0.8759499-0.5767822-1.8126144-0.5767822-2.8186569s0.2341919-1.9427032,0.7111816-2.8013115
		c0.4726562-0.8586044,1.1361694-1.5957909,1.9990845-2.2202339c0.854248-0.6201057,1.8776855-1.1014442,3.0615234-1.439682
		c1.1838379-0.3425751,2.4890747-0.5116959,3.9070435-0.5116959c1.1838379,0,2.3850708,0.1040726,3.5992432,0.3122215
		c1.2141724,0.2038116,2.2939453,0.5030212,3.2392578,0.8846245V31.746748c0-2.0424423-0.5767212-3.6642532-1.7302246-4.8610992
		c-1.1534424-1.2011814-2.7536011-1.7996044-4.7960205-1.7996044c-1.1838379,0-2.3980103,0.2385025-3.6425781,0.7111702
		c-1.2402344,0.4726658-2.5020752,1.1534805-3.772644,2.0424404l-1.0667725-1.9990768
		c2.9921265-2.0120869,5.8887939-3.0181313,8.703125-3.0181313c2.901062,0,5.1820068,0.8152428,6.838501,2.441391
		c1.6564941,1.6304836,2.4890747,3.8767357,2.4890747,6.7474308v10.4377022c0,0.8282509,0.3685913,1.244545,1.1101685,1.244545
		v2.6625481c-0.5073853,0.0867271-0.8889771,0.1344261-1.1578369,0.1344261c-0.7675781,0-1.3703003-0.195137-1.7952881-0.5767403
		c-0.4292603-0.3859406-0.6591187-0.9193153-0.6894531-1.6001282l-0.0910645-1.8212891
		c-1.062439,1.391983-2.4024048,2.4587364-4.0155029,3.1959267
		C538.9987183,46.4297791,537.2641602,46.7983742,535.3952026,46.7983742z M536.1063232,44.4914131
		c1.5697632,0,3.0137939-0.2948761,4.3320923-0.8889618c1.3139038-0.5897484,2.3156128-1.3746376,2.99646-2.3546638
		c0.2644653-0.2645187,0.4639893-0.5550575,0.5983887-0.8629417c0.1344604-0.3122215,0.1994629-0.6027565,0.1994629-0.8672791
		v-3.7726631c-1.0060425-0.3859406-2.0510864-0.6808128-3.1308594-0.8889618
		c-1.0797729-0.2081451-2.1812134-0.3122177-3.3086548-0.3122177c-2.1292114,0-3.859375,0.4466476-5.1950073,1.3312721
		c-1.3312988,0.8889618-1.994751,2.0597878-1.994751,3.5081444c0,0.7111664,0.1387939,1.3789711,0.4206543,1.9990768
		s0.6634521,1.1621552,1.1534424,1.6218109c0.4900513,0.4596596,1.071106,0.8195801,1.7562866,1.0884361
		C534.6102905,44.3569832,535.3388062,44.4914131,536.1063232,44.4914131z"/>
	<path class="st0" d="M573.7202148,46.3560638h-3.0181274V33.4336052c0-2.7536106-0.4075928-4.7526894-1.2228394-5.992897
		c-0.8152466-1.2445469-2.0641479-1.8646507-3.7509766-1.8646507c-0.8889771,0-1.7779541,0.1604462-2.6625366,0.4856758
		c-0.8889771,0.329567-1.7128906,0.7848873-2.4674072,1.3789749c-0.7545776,0.5897484-1.4266968,1.292244-2.020813,2.1074867
		c-0.5897217,0.8152428-1.019043,1.6955299-1.2879028,2.6408653v14.1670036h-3.0181274V23.2213955h2.7536011v5.2383652
		c0.9453735-1.6868572,2.3026733-3.0484867,4.0632324-4.0848846s3.6772461-1.5524292,5.750061-1.5524292
		c1.2705688,0,2.3546753,0.2385025,3.2392578,0.7111683c0.8889771,0.4726677,1.6001587,1.1404724,2.1335449,1.9947414
		c0.5333862,0.8629436,0.914978,1.9123516,1.1534424,3.1525593c0.2385254,1.244545,0.3555908,2.6235199,0.3555908,4.1325836
		V46.3560638z"/>
	<path class="st0" d="M617.9037476,38.2296562c0,1.3312759-0.2645264,2.5021019-0.7979126,3.5081444
		c-0.5333252,1.0060463-1.2661743,1.8516426-2.1985474,2.5324554c-0.932312,0.6808128-2.012085,1.196846-3.2435913,1.5524292
		c-1.2272339,0.3555832-2.5368042,0.5333786-3.928772,0.5333786h-15.2294312V14.830471h16.8729248
		c1.0927734,0,2.0858154,0.2341652,2.9747314,0.7068319c0.8889771,0.4770041,1.6434937,1.0884352,2.2636108,1.8429689
		c0.6244507,0.7545319,1.1057739,1.6174736,1.4440308,2.5758171c0.3382568,0.9626808,0.5117188,1.9340324,0.5117188,2.9097214
		c0,1.5394211-0.3859863,2.9834404-1.1535034,4.3277225c-0.7718506,1.3486195-1.8950195,2.3503265-3.3780518,3.0007858
		c1.8082886,0.5333767,3.2349243,1.4873829,4.2886963,2.8620205
		C617.3790283,34.4353142,617.9037476,36.1568604,617.9037476,38.2296562z M598.6328125,20.0688362v7.9486122h8.1697998
		c1.036377,0,1.916687-0.3555851,2.6408691-1.0667534c0.7285156-0.7111683,1.0883789-1.6868572,1.0883789-2.9314041
		c0-1.2141895-0.3338623-2.172533-0.9973145-2.8837013c-0.6678467-0.7111702-1.4874268-1.0667534-2.4674072-1.0667534H598.6328125z
		 M611.7330933,37.0761757c0-0.5637283-0.0997314-1.1014442-0.2905884-1.6218109
		c-0.1907959-0.5160294-0.4509888-0.9670143-0.7761841-1.3529549c-0.3252563-0.3859406-0.7111816-0.6894875-1.1535034-0.9106445
		c-0.4466553-0.2211533-0.932312-0.3339005-1.4656982-0.3339005h-9.4143066v8.3041954h9.1021118
		c0.5637207,0,1.0884399-0.1040726,1.5784302-0.3122215c0.4856567-0.2038078,0.9106445-0.4943466,1.2619019-0.8629417
		c0.3555908-0.3729286,0.6374512-0.8065681,0.8455811-1.3139267
		C611.6289673,38.1689491,611.7330933,37.6399078,611.7330933,37.0761757z"/>
	<path class="st0" d="M634.7766724,25.8839417c-2.0424194,0.060709-3.81604,0.6244411-5.3250732,1.6868572
		c-1.5134277,1.0667534-2.5758667,2.5324554-3.2002563,4.3971043v14.3881607h-3.0181274V23.2213955h2.840332v5.5505848
		c0.8585815-1.7779217,2.0164185-3.1655674,3.4647827-4.1759472c1.4483032-1.0060444,3.005127-1.5090656,4.6616211-1.5090656
		c0.2384644,0,0.4292603,0.0173454,0.5767212,0.0433636V25.8839417z"/>
	<path class="st0" d="M644.8110962,46.7983742c-1.0927734,0-2.1074829-0.1821289-3.0397949-0.5550575
		c-0.932373-0.3685951-1.7476196-0.8802872-2.4414062-1.5307465c-0.6981812-0.6504593-1.2359009-1.4136658-1.6218262-2.2852821
		c-0.3859253-0.8759499-0.5767212-1.8126144-0.5767212-2.8186569s0.2341309-1.9427032,0.7111816-2.8013115
		c0.4726562-0.8586044,1.1361084-1.5957909,1.9990234-2.2202339c0.8543091-0.6201057,1.8776855-1.1014442,3.0615234-1.439682
		c1.1838379-0.3425751,2.4890747-0.5116959,3.9071045-0.5116959c1.1838379,0,2.3850098,0.1040726,3.5991821,0.3122215
		c1.2142334,0.2038116,2.2939453,0.5030212,3.2393188,0.8846245V31.746748c0-2.0424423-0.5767822-3.6642532-1.7302246-4.8610992
		c-1.1535034-1.2011814-2.7536011-1.7996044-4.7960815-1.7996044c-1.1838379,0-2.3980103,0.2385025-3.6425781,0.7111702
		c-1.2401733,0.4726658-2.5020752,1.1534805-3.772644,2.0424404l-1.0667725-1.9990768
		c2.9921265-2.0120869,5.888855-3.0181313,8.703186-3.0181313c2.901001,0,5.1819458,0.8152428,6.838501,2.441391
		c1.6564941,1.6304836,2.4890747,3.8767357,2.4890747,6.7474308v10.4377022c0,0.8282509,0.3685913,1.244545,1.1101074,1.244545
		v2.6625481c-0.5073853,0.0867271-0.8889771,0.1344261-1.1578369,0.1344261c-0.7675171,0-1.3703003-0.195137-1.7952271-0.5767403
		c-0.4293213-0.3859406-0.6591797-0.9193153-0.6895142-1.6001282l-0.0910645-1.8212891
		c-1.062439,1.391983-2.4023438,2.4587364-4.0155029,3.1959267
		C648.4146118,46.4297791,646.6800537,46.7983742,644.8110962,46.7983742z M645.5222778,44.4914131
		c1.5697632,0,3.0137939-0.2948761,4.3320312-0.8889618c1.3139648-0.5897484,2.3156738-1.3746376,2.99646-2.3546638
		c0.2645264-0.2645187,0.4639893-0.5550575,0.5984497-0.8629417c0.1343994-0.3122215,0.1994629-0.6027565,0.1994629-0.8672791
		v-3.7726631c-1.0060425-0.3859406-2.0511475-0.6808128-3.1309204-0.8889618
		c-1.0797119-0.2081451-2.1811523-0.3122177-3.3086548-0.3122177c-2.1291504,0-3.859375,0.4466476-5.1950073,1.3312721
		c-1.3312378,0.8889618-1.994751,2.0597878-1.994751,3.5081444c0,0.7111664,0.1387939,1.3789711,0.4206543,1.9990768
		s0.6634521,1.1621552,1.1535034,1.6218109c0.4899902,0.4596596,1.0710449,0.8195801,1.7562256,1.0884361
		C644.0261841,44.3569832,644.7546997,44.4914131,645.5222778,44.4914131z"/>
	<path class="st0" d="M663.6831055,18.381979v-4.4404688h3.0181274v4.4404688H663.6831055z M663.6831055,46.3560638V23.2213955
		h3.0181274v23.1346684H663.6831055z"/>
	<path class="st0" d="M693.3006592,46.3560638h-3.0181274V33.4336052c0-2.7536106-0.4076538-4.7526894-1.2228394-5.992897
		c-0.8152466-1.2445469-2.0641479-1.8646507-3.7510376-1.8646507c-0.888916,0-1.7778931,0.1604462-2.6625366,0.4856758
		c-0.888916,0.329567-1.7128296,0.7848873-2.4674072,1.3789749c-0.7545166,0.5897484-1.4266357,1.292244-2.020752,2.1074867
		c-0.5897217,0.8152428-1.019043,1.6955299-1.2879028,2.6408653v14.1670036h-3.0181274V23.2213955h2.7536011v5.2383652
		c0.9453125-1.6868572,2.3026123-3.0484867,4.0632324-4.0848846c1.7605591-1.0363979,3.6772461-1.5524292,5.750061-1.5524292
		c1.2705688,0,2.3546143,0.2385025,3.2392578,0.7111683c0.8889771,0.4726677,1.6001587,1.1404724,2.1334839,1.9947414
		c0.5333862,0.8629436,0.914978,1.9123516,1.1535034,3.1525593c0.2385254,1.244545,0.3555908,2.6235199,0.3555908,4.1325836
		V46.3560638z"/>
	<path class="st0" d="M712.090271,46.3560638V14.830471h13.9414673c1.4526978,0,2.7883301,0.3035479,4.0198975,0.9106426
		c1.2271729,0.6070957,2.2852783,1.4049911,3.1741943,2.3936901c0.8889771,0.9930344,1.5828247,2.1204967,2.0858154,3.3780518
		c0.5030518,1.257555,0.7545166,2.5237808,0.7545166,3.7943459c0,2.0424423-0.5073242,3.9027557-1.5307007,5.5722675
		c-1.019104,1.6738491-2.4067383,2.8793659-4.1499634,3.6208897l7.1940918,11.8557053h-6.8861694l-6.4352417-10.5677948h-6.0405884
		v10.5677948H712.090271z M718.2175903,30.4154739h7.6797485c0.5637207,0,1.0884399-0.134428,1.5784302-0.3989487
		c0.4900513-0.268856,0.9106445-0.6287766,1.2662354-1.0884342s0.6331177-1.0017071,0.8412476-1.6218128
		c0.2081909-0.6201038,0.3122559-1.2879086,0.3122559-1.9990768c0-0.7371883-0.1170654-1.4180012-0.3555908-2.0424423
		c-0.2385254-0.6201038-0.5550537-1.1621532-0.9540405-1.6218109c-0.3989258-0.4553223-0.8585815-0.8109074-1.3789673-1.062418
		c-0.5159912-0.2515106-1.0407104-0.3772659-1.5740967-0.3772659h-7.4152222V30.4154739z"/>
	<path class="st0" d="M752.1455688,46.7983742c-1.6868896,0-3.2349854-0.316555-4.6399536-0.9540062
		c-1.4050293-0.6331139-2.6278687-1.5090675-3.6642456-2.6191826c-1.036438-1.1101189-1.8430176-2.3893547-2.4197388-3.8420448
		c-0.5767212-1.4483566-0.8672485-3.0007858-0.8672485-4.6616249c0-1.6261482,0.2905273-3.1612339,0.8672485-4.5965805
		s1.3746338-2.6928997,2.3980103-3.7726631c1.0234375-1.0797615,2.2419434-1.9383678,3.6642456-2.575819
		c1.4180298-0.6374493,2.9574585-0.9540062,4.6182861-0.9540062c1.6868896,0,3.2349243,0.3165569,4.6399536,0.9540062
		c1.4049683,0.6374512,2.6104736,1.5047302,3.6165161,2.5975018c1.0060425,1.0971069,1.7909546,2.3546619,2.3546753,3.7726631
		c0.5637207,1.4223366,0.8456421,2.9314041,0.8456421,4.5315323c0,0.2385025,0,0.4726677,0,0.7111702
		c0,0.2341652-0.017395,0.3989487-0.0477295,0.4856758h-19.8043213c0.0910645,1.244545,0.3772583,2.3936882,0.8673096,3.4430962
		c0.4899902,1.049408,1.1187744,1.9600525,1.8862915,2.7319298c0.7719116,0.76754,1.6521606,1.3703003,2.6452026,1.795269
		c0.9887085,0.4293022,2.046814,0.646122,3.1742554,0.646122c0.7371826,0,1.4786987-0.1040726,2.2202148-0.3122215
		c0.7371826-0.2038116,1.4180298-0.4856758,2.0424805-0.841259c0.6200562-0.355587,1.1838379-0.79356,1.6868286-1.3095932
		c0.5030518-0.5203667,0.8889771-1.0884361,1.1535034-1.7128754l2.6191406,0.7111702
		c-0.3555298,0.8586044-0.8585815,1.634819-1.5090332,2.3329773c-0.6504517,0.6938248-1.4049683,1.3009186-2.2636108,1.8212891
		c-0.8585815,0.5160294-1.8082886,0.914978-2.840332,1.1968422
		C754.3484497,46.6596107,753.2686768,46.7983742,752.1455688,46.7983742z M760.6708984,33.5680351
		c-0.086731-1.2445488-0.3772583-2.3763466-0.8673096-3.3953991c-0.4856567-1.0233898-1.1101074-1.903677-1.864624-2.6452007
		c-0.7545166-0.7371864-1.6261597-1.3139286-2.6192017-1.7302208c-0.993042-0.4162941-2.0510864-0.6201057-3.1741943-0.6201057
		c-1.1275024,0-2.1898804,0.2038116-3.1959229,0.6201057c-1.0061035,0.4162922-1.8863525,0.9930344-2.6452026,1.7302208
		c-0.7545776,0.7415237-1.3616333,1.6304836-1.8169556,2.6668835c-0.4596558,1.0363979-0.7328491,2.1595249-0.8239136,3.3737164
		H760.6708984z"/>
	<path class="st0" d="M776.3946533,46.7983742c-1.8082886,0-3.5688477-0.2948761-5.2860718-0.8846245
		c-1.7172241-0.5940857-3.1959229-1.4526939-4.4404297-2.5758171l1.3746338-2.0424423
		c1.3052368,1.0624161,2.6278076,1.8646507,3.9764404,2.3980255c1.3442993,0.5290413,2.7883301,0.7978973,4.3277588,0.7978973
		c1.864624,0,3.3519897-0.3772659,4.4620972-1.1318016c1.1101685-0.7545319,1.6652222-1.8299561,1.6652222-3.2219391
		c0-0.6504593-0.1474609-1.1881714-0.4423218-1.6174774c-0.2948608-0.4293022-0.7328491-0.8065681-1.3095703-1.1317978
		c-0.5767822-0.329567-1.3052979-0.6157684-2.1768799-0.8672791c-0.8716431-0.2515106-1.8863525-0.5116959-3.039856-0.7762146
		c-1.3312378-0.3252296-2.4890747-0.6504593-3.4647827-0.9800262c-0.975647-0.3252296-1.7822266-0.693821-2.4196777-1.1101151
		c-0.6374512-0.4119568-1.1101074-0.9236526-1.4223633-1.5307465c-0.3078613-0.6070976-0.4639893-1.3703022-0.4639893-2.2852821
		c0-1.1578178,0.2298584-2.1768703,0.6851807-3.0658302c0.4596558-0.8889618,1.0841064-1.6218128,1.8689575-2.1985531
		c0.7805786-0.5767403,1.6998901-1.0103798,2.7492676-1.3095913c1.053772-0.2948742,2.1682129-0.4423122,3.3563843-0.4423122
		c1.7736206,0,3.3867188,0.2862015,4.8394165,0.8629417c1.4483643,0.5810776,2.6192017,1.3399467,3.5081787,2.2896175
		l-1.4657593,1.7735844c-0.8585815-0.8846245-1.9036255-1.5524292-3.1308594-1.9947414
		c-1.2315063-0.4466476-2.5107422-0.6678047-3.842041-0.6678047c-0.7979126,0-1.5394287,0.0823917-2.2202148,0.2428379
		c-0.6808472,0.1647835-1.2792358,0.4249668-1.7996216,0.7805519c-0.5160522,0.3512478-0.923645,0.8065701-1.2185059,1.3529549
		c-0.2992554,0.5463867-0.4466553,1.1925087-0.4466553,1.929697c0,0.6244392,0.1040649,1.1274624,0.3121948,1.5090637
		c0.2081909,0.3859406,0.5463867,0.7198429,1.0233765,1.0017071c0.4727173,0.2818661,1.071106,0.5333767,1.7952881,0.7545338
		s1.6044922,0.450985,2.6452026,0.6894875c1.4786987,0.3555832,2.7796631,0.7111664,3.9071045,1.0624161
		c1.1231079,0.3555832,2.0641479,0.7718773,2.8186646,1.244545s1.3225708,1.0537453,1.7084961,1.7345581
		c0.3859863,0.6808128,0.5767822,1.5090675,0.5767822,2.4847527c0,2.1291733-0.8152466,3.8203659-2.4414062,5.0605736
		C781.3381348,46.1782684,779.1439209,46.7983742,776.3946533,46.7983742z"/>
	<path class="st0" d="M800.8129272,46.7983742c-1.6868896,0-3.2349854-0.316555-4.6399536-0.9540062
		c-1.4050293-0.6331139-2.6278687-1.5090675-3.6642456-2.6191826c-1.036438-1.1101189-1.8430176-2.3893547-2.4197388-3.8420448
		c-0.5767212-1.4483566-0.8672485-3.0007858-0.8672485-4.6616249c0-1.6261482,0.2905273-3.1612339,0.8672485-4.5965805
		s1.3746338-2.6928997,2.3980103-3.7726631c1.0234375-1.0797615,2.2419434-1.9383678,3.6642456-2.575819
		c1.4180298-0.6374493,2.9574585-0.9540062,4.6182861-0.9540062c1.6868896,0,3.2349854,0.3165569,4.6399536,0.9540062
		c1.4049683,0.6374512,2.6104736,1.5047302,3.6165771,2.5975018c1.0060425,1.0971069,1.7908936,2.3546619,2.3546143,3.7726631
		c0.5637207,1.4223366,0.8456421,2.9314041,0.8456421,4.5315323c0,0.2385025,0,0.4726677,0,0.7111702
		c0,0.2341652-0.017395,0.3989487-0.0477295,0.4856758h-19.8043213c0.0910645,1.244545,0.3772583,2.3936882,0.8673096,3.4430962
		c0.4899902,1.049408,1.1187744,1.9600525,1.8862915,2.7319298c0.7719116,0.76754,1.6521606,1.3703003,2.6452026,1.795269
		c0.9887085,0.4293022,2.046814,0.646122,3.1742554,0.646122c0.7371826,0,1.4786987-0.1040726,2.2202148-0.3122215
		c0.7371826-0.2038116,1.4180298-0.4856758,2.0424805-0.841259c0.6201172-0.355587,1.1838379-0.79356,1.6868286-1.3095932
		c0.5030518-0.5203667,0.8889771-1.0884361,1.1535034-1.7128754l2.6192017,0.7111702
		c-0.3555908,0.8586044-0.8586426,1.634819-1.5090942,2.3329773c-0.6504517,0.6938248-1.4049683,1.3009186-2.2636108,1.8212891
		c-0.8585815,0.5160294-1.8082886,0.914978-2.840332,1.1968422
		C803.0158081,46.6596107,801.9360352,46.7983742,800.8129272,46.7983742z M809.3382568,33.5680351
		c-0.086731-1.2445488-0.3772583-2.3763466-0.8673096-3.3953991c-0.4856567-1.0233898-1.1101074-1.903677-1.864624-2.6452007
		c-0.7545166-0.7371864-1.6261597-1.3139286-2.6192017-1.7302208c-0.993042-0.4162941-2.0510864-0.6201057-3.1741943-0.6201057
		c-1.1275024,0-2.1898804,0.2038116-3.1959229,0.6201057c-1.0060425,0.4162922-1.8863525,0.9930344-2.6452026,1.7302208
		c-0.7545776,0.7415237-1.3616333,1.6304836-1.8169556,2.6668835c-0.4596558,1.0363979-0.7328491,2.1595249-0.8239136,3.3737164
		H809.3382568z"/>
	<path class="st0" d="M823.1930542,46.7983742c-1.0927734,0-2.1074829-0.1821289-3.039856-0.5550575
		c-0.932312-0.3685951-1.7475586-0.8802872-2.4413452-1.5307465c-0.6981812-0.6504593-1.2359009-1.4136658-1.6218262-2.2852821
		c-0.3859253-0.8759499-0.5767212-1.8126144-0.5767212-2.8186569s0.2341309-1.9427032,0.7111206-2.8013115
		c0.4727173-0.8586044,1.1361694-1.5957909,1.9990845-2.2202339c0.8543091-0.6201057,1.8776855-1.1014442,3.0615234-1.439682
		c1.1838379-0.3425751,2.4890747-0.5116959,3.9071045-0.5116959c1.1838379,0,2.3850098,0.1040726,3.5991821,0.3122215
		c1.2141724,0.2038116,2.2939453,0.5030212,3.2392578,0.8846245V31.746748c0-2.0424423-0.5767212-3.6642532-1.7301636-4.8610992
		c-1.1535034-1.2011814-2.7536621-1.7996044-4.7960815-1.7996044c-1.1838379,0-2.3980103,0.2385025-3.6425781,0.7111702
		c-1.2401733,0.4726658-2.5020752,1.1534805-3.772644,2.0424404l-1.0667725-1.9990768
		c2.9921265-2.0120869,5.888855-3.0181313,8.703125-3.0181313c2.901062,0,5.1820068,0.8152428,6.838501,2.441391
		c1.6564941,1.6304836,2.4891357,3.8767357,2.4891357,6.7474308v10.4377022c0,0.8282509,0.3685913,1.244545,1.1101074,1.244545
		v2.6625481c-0.5073853,0.0867271-0.8889771,0.1344261-1.1578369,0.1344261c-0.7675171,0-1.3703003-0.195137-1.7952881-0.5767403
		c-0.4292603-0.3859406-0.6591187-0.9193153-0.6894531-1.6001282l-0.0910645-1.8212891
		c-1.062439,1.391983-2.4023438,2.4587364-4.0155029,3.1959267
		C826.7965698,46.4297791,825.0620117,46.7983742,823.1930542,46.7983742z M823.9041748,44.4914131
		c1.5698242,0,3.0137939-0.2948761,4.3320923-0.8889618c1.3139038-0.5897484,2.3156128-1.3746376,2.99646-2.3546638
		c0.2645264-0.2645187,0.4639893-0.5550575,0.5983887-0.8629417c0.1344604-0.3122215,0.1994629-0.6027565,0.1994629-0.8672791
		v-3.7726631c-1.0060425-0.3859406-2.0510864-0.6808128-3.1308594-0.8889618
		c-1.0797729-0.2081451-2.1812134-0.3122177-3.3086548-0.3122177c-2.1291504,0-3.859375,0.4466476-5.1950073,1.3312721
		c-1.3312988,0.8889618-1.994751,2.0597878-1.994751,3.5081444c0,0.7111664,0.1387939,1.3789711,0.4206543,1.9990768
		s0.6634521,1.1621552,1.1534424,1.6218109c0.4900513,0.4596596,1.071106,0.8195801,1.7562866,1.0884361
		C822.4081421,44.3569832,823.1366577,44.4914131,823.9041748,44.4914131z"/>
	<path class="st0" d="M853.612854,25.8839417c-2.0424805,0.060709-3.81604,0.6244411-5.3250732,1.6868572
		c-1.5134277,1.0667534-2.5758667,2.5324554-3.2003174,4.3971043v14.3881607h-3.0181274V23.2213955h2.8403931v5.5505848
		c0.8585815-1.7779217,2.0164185-3.1655674,3.4647217-4.1759472c1.4483643-1.0060444,3.005127-1.5090656,4.6616821-1.5090656
		c0.2384644,0,0.4292603,0.0173454,0.5767212,0.0433636V25.8839417z"/>
	<path class="st0" d="M855.3864136,34.7215157c0-1.6261482,0.2818604-3.1655693,0.8456421-4.6182613
		c0.5637207-1.4483566,1.3529053-2.7145844,2.3763428-3.7943459c1.019043-1.0797634,2.2418823-1.9340324,3.6642456-2.5541363
		c1.4179688-0.6244411,2.9877319-0.9323254,4.7049561-0.9323254c2.1898804,0,4.0979004,0.4943485,5.7283936,1.4873829
		c1.6261597,0.9930344,2.857666,2.3286438,3.6859131,4.0198383l-2.9313965,0.9323254
		c-0.6504517-1.183836-1.5610962-2.111824-2.7319336-2.7752934c-1.1664429-0.6678047-2.4630737-1.0017071-3.885376-1.0017071
		c-1.1838379,0-2.2852783,0.2385025-3.3086548,0.7111683c-1.019104,0.4726677-1.90802,1.1187916-2.6625977,1.929697
		c-0.7545166,0.8152409-1.3485718,1.7865944-1.7778931,2.9097214c-0.4293213,1.1274605-0.6417847,2.35466-0.6417847,3.685936
		c0,1.3052521,0.2211304,2.5324516,0.6677856,3.685936c0.4423218,1.1534805,1.0494385,2.1551857,1.8169556,2.9964485
		c0.7719116,0.8455963,1.6651611,1.5090637,2.6885986,1.9990768c1.019043,0.4900131,2.1074829,0.7328491,3.2652588,0.7328491
		c0.7371826,0,1.4700317-0.1040726,2.1942139-0.3122177c0.7285156-0.2038116,1.4006958-0.4943504,2.020752-0.8629417
		c0.6244507-0.3729324,1.1578369-0.7935638,1.6001587-1.2662277c0.4423218-0.4726677,0.7545166-0.9756889,0.932312-1.5090675
		l2.9747925,0.8846245c-0.3252563,0.8325882-0.7979126,1.5914574-1.4223633,2.2896156
		c-0.6201172,0.6938248-1.3529663,1.3009186-2.1942139,1.8212891c-0.8455811,0.5160294-1.7778931,0.914978-2.8013306,1.1968422
		c-1.019043,0.281868-2.0770874,0.4206314-3.1741943,0.4206314c-1.6868896,0-3.2393188-0.316555-4.6616211-0.9540062
		c-1.4223633-0.6331139-2.6495361-1.5090675-3.6859741-2.6191826c-1.036377-1.1101189-1.8429565-2.3893547-2.4196777-3.8420448
		C855.6769409,37.9347839,855.3864136,36.3823547,855.3864136,34.7215157z"/>
	<path class="st0" d="M901.3045044,46.3560638h-3.0181274V33.4336052c0-2.6321926-0.4509888-4.6009159-1.3572998-5.9061699
		c-0.9019775-1.3009186-2.2245483-1.9513779-3.9721069-1.9513779c-0.8586426,0-1.7085571,0.1691189-2.5541382,0.5073586
		c-0.8412476,0.3425751-1.6348267,0.8109055-2.3763428,1.4006557c-0.7371826,0.5940857-1.3833008,1.2879086-1.9296875,2.0858059
		c-0.5463867,0.8022327-0.9540405,1.6738472-1.2229004,2.6191826v14.1670036h-3.0181274V13.9415102h3.0181274v14.5182505
		c0.9193115-1.7432308,2.1898804-3.1222057,3.8203735-4.1282482c1.6261597-1.0060444,3.3910522-1.5090656,5.2860718-1.5090656
		c1.3312988,0,2.4544067,0.2428379,3.3737183,0.732851c0.914978,0.4856758,1.6694946,1.170826,2.2636108,2.0424423
		c0.5897217,0.8716145,1.0233765,1.9253578,1.2879028,3.1525593c0.2645264,1.2271996,0.3989258,2.5844898,0.3989258,4.0632
		V46.3560638z"/>
	<path class="st0" d="M920.0897827,46.3560638V14.830471h6.1273193v31.5255928H920.0897827z"/>
	<path class="st0" d="M952.7731934,46.3560638h-3.0181274V33.4336052c0-2.7536106-0.4076538-4.7526894-1.2229004-5.992897
		c-0.8151855-1.2445469-2.0640869-1.8646507-3.7509766-1.8646507c-0.888916,0-1.7778931,0.1604462-2.6625366,0.4856758
		c-0.8889771,0.329567-1.7128906,0.7848873-2.4674072,1.3789749c-0.7545166,0.5897484-1.4266357,1.292244-2.020752,2.1074867
		c-0.5897217,0.8152428-1.019043,1.6955299-1.2879028,2.6408653v14.1670036h-3.0181274V23.2213955h2.7536011v5.2383652
		c0.9453125-1.6868572,2.3026123-3.0484867,4.0632324-4.0848846c1.7605591-1.0363979,3.6772461-1.5524292,5.750061-1.5524292
		c1.2705078,0,2.3546143,0.2385025,3.2392578,0.7111683c0.8889771,0.4726677,1.6001587,1.1404724,2.1334839,1.9947414
		c0.5333862,0.8629436,0.914978,1.9123516,1.1535034,3.1525593c0.2385254,1.244545,0.3555908,2.6235199,0.3555908,4.1325836
		V46.3560638z"/>
	<path class="st0" d="M967.3868408,46.7983742c-1.8082886,0-3.5688477-0.2948761-5.2860718-0.8846245
		c-1.7172241-0.5940857-3.1959229-1.4526939-4.4404907-2.5758171l1.3746948-2.0424423
		c1.3052368,1.0624161,2.6278076,1.8646507,3.9764404,2.3980255c1.3442993,0.5290413,2.7883301,0.7978973,4.3276978,0.7978973
		c1.8646851,0,3.3520508-0.3772659,4.4621582-1.1318016c1.1101074-0.7545319,1.6652222-1.8299561,1.6652222-3.2219391
		c0-0.6504593-0.1474609-1.1881714-0.4423218-1.6174774c-0.2949219-0.4293022-0.7328491-0.8065681-1.3096313-1.1317978
		c-0.5767212-0.329567-1.3052368-0.6157684-2.1768188-0.8672791c-0.8716431-0.2515106-1.8863525-0.5116959-3.039856-0.7762146
		c-1.3312378-0.3252296-2.4890747-0.6504593-3.4647827-0.9800262c-0.975647-0.3252296-1.7822266-0.693821-2.4196777-1.1101151
		c-0.6374512-0.4119568-1.1101074-0.9236526-1.4223633-1.5307465c-0.3078613-0.6070976-0.4639893-1.3703022-0.4639893-2.2852821
		c0-1.1578178,0.2298584-2.1768703,0.6851807-3.0658302c0.4596558-0.8889618,1.0841064-1.6218128,1.8689575-2.1985531
		c0.7805786-0.5767403,1.6998901-1.0103798,2.7492676-1.3095913c1.053772-0.2948742,2.1682129-0.4423122,3.3563843-0.4423122
		c1.7735596,0,3.3867188,0.2862015,4.8394165,0.8629417c1.4483643,0.5810776,2.6192017,1.3399467,3.5081177,2.2896175
		l-1.4656982,1.7735844c-0.8585815-0.8846245-1.9036255-1.5524292-3.1308594-1.9947414
		c-1.2315063-0.4466476-2.5107422-0.6678047-3.842041-0.6678047c-0.7979126,0-1.5394287,0.0823917-2.2202148,0.2428379
		c-0.6808472,0.1647835-1.2792358,0.4249668-1.7996216,0.7805519c-0.5160522,0.3512478-0.923645,0.8065701-1.2185059,1.3529549
		c-0.2992554,0.5463867-0.4466553,1.1925087-0.4466553,1.929697c0,0.6244392,0.1040649,1.1274624,0.3121948,1.5090637
		c0.2081299,0.3859406,0.5463867,0.7198429,1.0233765,1.0017071c0.4727173,0.2818661,1.071106,0.5333767,1.7952881,0.7545338
		s1.6044922,0.450985,2.6452026,0.6894875c1.4786987,0.3555832,2.7796021,0.7111664,3.9071045,1.0624161
		c1.1231079,0.3555832,2.0640869,0.7718773,2.8186646,1.244545c0.7545166,0.4726677,1.3225708,1.0537453,1.7084961,1.7345581
		c0.3859863,0.6808128,0.5767822,1.5090675,0.5767822,2.4847527c0,2.1291733-0.8152466,3.8203659-2.4414062,5.0605736
		C972.3303223,46.1782684,970.1361084,46.7983742,967.3868408,46.7983742z"/>
	<path class="st0" d="M992.9152222,45.245945c-0.1777954,0.0867271-0.4379883,0.208149-0.7762451,0.3555832
		c-0.3425903,0.147438-0.7328491,0.2948761-1.1795044,0.4423141c-0.4423218,0.1517715-0.9453125,0.2818642-1.5090332,0.3989487
		c-0.5593872,0.121418-1.1535034,0.1777916-1.7736206,0.1777916c-0.6547852,0-1.2749023-0.0867271-1.864624-0.2645187
		c-0.5941162-0.1777954-1.1101074-0.450985-1.5567627-0.8195801c-0.4423218-0.3729286-0.7979126-0.8369255-1.0667725-1.4006577
		c-0.2645264-0.5637283-0.3989258-1.2141876-0.3989258-1.9557114V25.619421h-3.1959229v-2.3980255h3.1959229v-7.8141842h3.0224609
		v7.8141842h5.3250732v2.3980255h-5.3250732v15.7194309c0.0563354,0.8586082,0.3599243,1.4873848,0.9106445,1.8863335
		c0.5463867,0.3989487,1.1751709,0.598423,1.8862915,0.598423c0.8586426,0,1.6131592-0.1387672,2.2636108-0.4206314
		s1.0667725-0.4813385,1.2445679-0.598423L992.9152222,45.245945z"/>
	<path class="st0" d="M997.1778564,18.381979v-4.4404688h3.0181274v4.4404688H997.1778564z M997.1778564,46.3560638V23.2213955
		h3.0181274v23.1346684H997.1778564z"/>
	<path class="st0" d="M1018.447876,45.245945c-0.1777954,0.0867271-0.4379883,0.208149-0.7761841,0.3555832
		c-0.3425903,0.147438-0.7328491,0.2948761-1.1795044,0.4423141c-0.4423218,0.1517715-0.9453735,0.2818642-1.5090942,0.3989487
		c-0.5593872,0.121418-1.1534424,0.1777916-1.7735596,0.1777916c-0.6547852,0-1.2749023-0.0867271-1.8646851-0.2645187
		c-0.5940552-0.1777954-1.1101074-0.450985-1.5567627-0.8195801c-0.4422607-0.3729286-0.7978516-0.8369255-1.0667114-1.4006577
		c-0.2645264-0.5637283-0.3989868-1.2141876-0.3989868-1.9557114V25.619421h-3.1959229v-2.3980255h3.1959229v-7.8141842h3.0224609
		v7.8141842h5.3251343v2.3980255h-5.3251343v15.7194309c0.0563965,0.8586082,0.3599243,1.4873848,0.9106445,1.8863335
		c0.5463867,0.3989487,1.1751709,0.598423,1.8863525,0.598423c0.8585815,0,1.6131592-0.1387672,2.2636108-0.4206314
		s1.0667725-0.4813385,1.2445068-0.598423L1018.447876,45.245945z"/>
	<path class="st0" d="M1029.9437256,46.7983742c-2.5151367,0-4.3884277-0.8325882-5.6157227-2.5064354
		c-1.2315063-1.6738472-1.8429565-4.1672745-1.8429565-7.4846191V23.2213955h3.0181274v13.0568867
		c0,5.2383614,1.7910156,7.8575439,5.3728027,7.8575439c0.8890381,0,1.7606201-0.1474342,2.6192627-0.4423103
		c0.8585205-0.2992096,1.6520996-0.7285156,2.3763428-1.2879105c0.7241211-0.5637321,1.3789062-1.2315369,1.9556885-1.9990768
		c0.5766602-0.7718773,1.0406494-1.6434937,1.3962402-2.6191826V23.2213955h3.0224609v19.2275753
		c0,0.8282509,0.3555908,1.244545,1.0625,1.244545v2.6625481c-0.3555908,0.0607071-0.6418457,0.0867271-0.862915,0.0867271
		c-0.2255859,0-0.3773193,0-0.4683838,0c-0.7111816-0.0260201-1.2879639-0.2775307-1.7302246-0.7545319
		c-0.4466553-0.4726677-0.6678467-1.1101189-0.6678467-1.9080162v-2.6625443
		c-1.0059814,1.8039398-2.3763428,3.2045937-4.1065674,4.1932907
		C1033.7423096,46.3040237,1031.8994141,46.7983742,1029.9437256,46.7983742z"/>
	<path class="st0" d="M1060.6713867,45.245945c-0.1778564,0.0867271-0.4379883,0.208149-0.7762451,0.3555832
		c-0.3425293,0.147438-0.7327881,0.2948761-1.1794434,0.4423141c-0.4423828,0.1517715-0.9454346,0.2818642-1.5091553,0.3989487
		c-0.5593262,0.121418-1.1534424,0.1777916-1.7735596,0.1777916c-0.6547852,0-1.2749023-0.0867271-1.864624-0.2645187
		c-0.5941162-0.1777954-1.1101074-0.450985-1.5567627-0.8195801c-0.4422607-0.3729286-0.7978516-0.8369255-1.0667725-1.4006577
		c-0.2645264-0.5637283-0.3989258-1.2141876-0.3989258-1.9557114V25.619421h-3.1959229v-2.3980255h3.1959229v-7.8141842h3.0224609
		v7.8141842h5.3250732v2.3980255h-5.3250732v15.7194309c0.0563965,0.8586082,0.3598633,1.4873848,0.9106445,1.8863335
		c0.5463867,0.3989487,1.1751709,0.598423,1.8863525,0.598423c0.8585205,0,1.6131592-0.1387672,2.2635498-0.4206314
		c0.6505127-0.2818642,1.0667725-0.4813385,1.2445068-0.598423L1060.6713867,45.245945z"/>
	<path class="st0" d="M1074.3439941,46.7983742c-1.6868896,0-3.2348633-0.316555-4.6398926-0.9540062
		c-1.4050293-0.6331139-2.6279297-1.5090675-3.6643066-2.6191826c-1.036377-1.1101189-1.8428955-2.3893547-2.4196777-3.8420448
		c-0.5767822-1.4483566-0.8673096-3.0007858-0.8673096-4.6616249c0-1.6261482,0.2905273-3.1612339,0.8673096-4.5965805
		s1.3746338-2.6928997,2.3980713-3.7726631c1.0233154-1.0797615,2.2418213-1.9383678,3.6641846-2.575819
		c1.4179688-0.6374493,2.9573975-0.9540062,4.6182861-0.9540062c1.6868896,0,3.2349854,0.3165569,4.6398926,0.9540062
		c1.4050293,0.6374512,2.6105957,1.5047302,3.6165771,2.5975018c1.0061035,1.0971069,1.7910156,2.3546619,2.3547363,3.7726631
		c0.5637207,1.4223366,0.8455811,2.9314041,0.8455811,4.5315323c0,0.2385025,0,0.4726677,0,0.7111702
		c0,0.2341652-0.017334,0.3989487-0.0477295,0.4856758h-19.8043213c0.0910645,1.244545,0.3773193,2.3936882,0.8673096,3.4430962
		s1.1187744,1.9600525,1.8863525,2.7319298c0.7718506,0.76754,1.6520996,1.3703003,2.6451416,1.795269
		c0.9886475,0.4293022,2.0467529,0.646122,3.1741943,0.646122c0.7371826,0,1.4787598-0.1040726,2.2203369-0.3122215
		c0.7371826-0.2038116,1.4179688-0.4856758,2.0423584-0.841259c0.6201172-0.355587,1.1838379-0.79356,1.6868896-1.3095932
		c0.5030518-0.5203667,0.888916-1.0884361,1.1534424-1.7128754l2.6192627,0.7111702
		c-0.3555908,0.8586044-0.8586426,1.634819-1.5091553,2.3329773c-0.6503906,0.6938248-1.4049072,1.3009186-2.2635498,1.8212891
		c-0.8586426,0.5160294-1.8082275,0.914978-2.840332,1.1968422
		C1076.546875,46.6596107,1075.4671631,46.7983742,1074.3439941,46.7983742z M1082.8693848,33.5680351
		c-0.086792-1.2445488-0.3773193-2.3763466-0.8673096-3.3953991c-0.4855957-1.0233898-1.1101074-1.903677-1.864624-2.6452007
		c-0.7545166-0.7371864-1.6260986-1.3139286-2.6191406-1.7302208c-0.993042-0.4162941-2.0511475-0.6201057-3.1743164-0.6201057
		c-1.1274414,0-2.1898193,0.2038116-3.1959229,0.6201057c-1.0059814,0.4162922-1.8863525,0.9930344-2.6451416,1.7302208
		c-0.7545166,0.7415237-1.3616943,1.6304836-1.8170166,2.6668835c-0.4595947,1.0363979-0.7327881,2.1595249-0.8238525,3.3737164
		H1082.8693848z"/>
	<path class="st0" d="M379.8963928,104.0821533v-31.525589h13.3214111c1.3616028,0,2.6126709,0.2862015,3.7509766,0.8629379
		c1.1404724,0.5767441,2.1248169,1.3312759,2.953064,2.2679367c0.8282776,0.9323273,1.472229,1.9904022,1.9318848,3.1742401
		s0.6894836,2.3806839,0.6894836,3.5948715c0,1.1534805-0.1712952,2.2592621-0.5116882,3.30867
		c-0.3404236,1.049408-0.8152466,1.9990768-1.420166,2.8403397c-0.6071167,0.8455963-1.3399658,1.5567627-2.1985779,2.1335068
		c-0.8585815,0.5767365-1.8212891,0.9713516-2.8858643,1.1751633l7.7252808,12.167923h-3.5081177l-7.4152527-11.634552h-9.3254089
		v11.634552H379.8963928z M383.003418,89.6939926h10.3032837c0.9171448,0,1.7540588-0.1994705,2.5085754-0.5984192
		c0.7545471-0.3989487,1.3984985-0.9410019,1.9318848-1.6218109c0.531189-0.6808167,0.945343-1.4483566,1.2423706-2.3069687
		c0.2948608-0.8586044,0.4444885-1.7605743,0.4444885-2.7102432c0-0.9453354-0.1712952-1.8559799-0.5116882-2.731926
		c-0.3404236-0.8716202-0.7979126-1.6348267-1.3746643-2.2852859c-0.5788879-0.6504593-1.2597046-1.1708221-2.0445862-1.5524292
		c-0.7827454-0.3859329-1.6044922-0.5810776-2.4630737-0.5810776H383.003418V89.6939926z"/>
	<path class="st0" d="M408.5361023,76.1080704v-4.4404678h3.0202942v4.4404678H408.5361023z M408.5361023,104.0821533V80.9474869
		h3.0202942v23.1346664H408.5361023z"/>
	<path class="st0" d="M429.8061218,102.9720383c-0.1777954,0.0867233-0.4379883,0.2081451-0.7762146,0.3555832
		c-0.3425598,0.147438-0.7328491,0.2948761-1.1773376,0.4423065c-0.444458,0.1517792-0.9474792,0.281868-1.5090637,0.3989487
		c-0.5637207,0.1214218-1.1556396,0.1777954-1.7779236,0.1777954c-0.6504517,0-1.2727356-0.086731-1.8646545-0.2645187
		c-0.5919189-0.1777954-1.1101074-0.4509888-1.5545959-0.8195801c-0.4422913-0.3729324-0.7978821-0.8369217-1.0645752-1.4006577
		c-0.2666931-0.5637283-0.3989563-1.2141876-0.3989563-1.9557114V83.3455124h-3.1980896v-2.3980255h3.1980896v-7.8141861h3.0181274
		v7.8141861h5.3294373v2.3980255h-5.3294373v15.719429c0.0585632,0.8586044,0.3620911,1.4873886,0.9106445,1.8863297
		c0.5485535,0.3989487,1.1773376,0.5984268,1.8863525,0.5984268c0.8585815,0,1.6131287-0.1387634,2.2657471-0.4206314
		c0.6504822-0.281868,1.0646057-0.4813385,1.2424011-0.5984192L429.8061218,102.9720383z"/>
	<path class="st0" d="M439.8860779,104.5244675c-1.0949402,0-2.1096497-0.1821289-3.0419922-0.5550613
		c-0.932312-0.3685913-1.7475586-0.8802872-2.4413757-1.5307465c-0.6959839-0.6504593-1.2380371-1.4136658-1.6218262-2.2852783
		c-0.3859253-0.8759537-0.5767212-1.8126144-0.5767212-2.8186569c0-1.0060501,0.2363281-1.9427109,0.7111511-2.8013153
		c0.4726868-0.8586044,1.1383057-1.5957947,1.9969177-2.2202301c0.8586121-0.6201096,1.8798218-1.1014481,3.0636597-1.4396896
		c1.1838379-0.3425751,2.486908-0.5116882,3.9071045-0.5116882c1.1838379,0,2.382843,0.1040726,3.5970154,0.3122177
		c1.2142029,0.2038116,2.2939758,0.5030212,3.2414551,0.8846283v-2.0858078c0-2.0424423-0.5767212-3.6642532-1.7301941-4.8610992
		c-1.1556702-1.2011795-2.7536316-1.7996063-4.7960815-1.7996063c-1.1838074,0-2.3980103,0.2385025-3.6425476,0.7111664
		c-1.2424011,0.4726715-2.499939,1.1534882-3.7726746,2.0424423l-1.0667419-1.9990768
		c2.9899292-2.012085,5.8909912-3.0181274,8.703125-3.0181274c2.901062,0,5.1798401,0.815239,6.838501,2.441391
		c1.6586609,1.6304855,2.4869385,3.8767319,2.4869385,6.7474289v10.4376984c0,0.8282547,0.3707581,1.2445526,1.1101074,1.2445526
		v2.6625443c-0.5030212,0.0867233-0.8889771,0.1344299-1.1534729,0.1344299c-0.7718811,0-1.3703003-0.195137-1.7996216-0.5767441
		c-0.4292908-0.3859406-0.6591187-0.9193115-0.6873169-1.6001282l-0.0888977-1.8212891
		c-1.0667419,1.391983-2.4067078,2.4587402-4.0198364,3.1959229
		C443.489624,104.1558685,441.7507324,104.5244675,439.8860779,104.5244675z M440.597229,102.2174988
		c1.567627,0,3.0116272-0.2948685,4.3277283-0.8889542c1.3182678-0.5897522,2.3178101-1.3746414,2.9986267-2.3546677
		c0.2666931-0.2645187,0.466156-0.5550537,0.5984192-0.8629379c0.1344299-0.3122253,0.1994629-0.6027603,0.1994629-0.8672791
		V93.470993c-1.0060425-0.3859406-2.0489197-0.6808167-3.1286926-0.8889618
		c-1.0819397-0.2081451-2.1833801-0.3122177-3.3086853-0.3122177c-2.1313171,0-3.8637085,0.4466476-5.1949768,1.3312683
		c-1.3334656,0.8889618-1.9990845,2.0597916-1.9990845,3.5081482c0,0.7111664,0.1409302,1.3789749,0.4227905,1.9990768
		c0.2796936,0.6201019,0.6656494,1.1621552,1.1534729,1.6218109c0.487854,0.4596558,1.0732727,0.8195801,1.7540894,1.0884323
		C439.1011963,102.0830765,439.8253784,102.2174988,440.597229,102.2174988z"/>
	<path class="st0" d="M471.1905212,104.0821533v-31.525589h3.1091919v28.7719803h18.2085266v2.7536087H471.1905212z"/>
	<path class="st0" d="M506.0074158,104.5244675c-1.6868591,0-3.2349548-0.3165588-4.6399231-0.95401
		c-1.4049988-0.63311-2.6278687-1.5090637-3.6642761-2.6191864c-1.036377-1.1101151-1.8429565-2.3893509-2.4197083-3.842041
		c-0.5767212-1.4483566-0.8672791-3.0007858-0.8672791-4.6616287c0-1.6261444,0.2905579-3.161232,0.8672791-4.5965729
		c0.5767517-1.4353485,1.3746338-2.6929016,2.3980408-3.7726669c1.0233765-1.0797653,2.2419128-1.9383698,3.6642456-2.5758209
		c1.4179993-0.6374435,2.957428-0.9540024,4.6182556-0.9540024c1.6868591,0,3.2349548,0.3165588,4.6399536,0.9540024
		c1.4049683,0.6374512,2.6105347,1.5047302,3.6165771,2.5975037c1.0060425,1.0971069,1.7908936,2.35466,2.3546143,3.7726669
		c0.5637817,1.4223328,0.8456421,2.9313965,0.8456421,4.5315323c0,0.2384949,0,0.4726639,0,0.7111664
		c0,0.2341614-0.017395,0.3989487-0.0477295,0.485672h-19.8043213c0.0910645,1.2445526,0.3772888,2.393692,0.8672791,3.4431
		c0.4900208,1.049408,1.1188049,1.9600525,1.8863525,2.7319336c0.7718811,0.76754,1.6521606,1.3703003,2.6452026,1.7952652
		c0.988678,0.4292984,2.0467834,0.6461182,3.1742249,0.6461182c0.7371826,0,1.4787292-0.1040726,2.2202454-0.3122177
		c0.7371826-0.2038116,1.4179993-0.485672,2.04245-0.8412628c0.6200867-0.3555832,1.1838379-0.7935562,1.6868286-1.3095856
		c0.5030518-0.5203705,0.8889771-1.0884399,1.1535034-1.7128754l2.6192017,0.7111664
		c-0.3555908,0.8586044-0.8586426,1.634819-1.5090942,2.3329773c-0.6504517,0.6938248-1.4049683,1.3009186-2.2636108,1.8212891
		c-0.8585815,0.5160294-1.8082581,0.914978-2.840332,1.196846
		C508.2103271,104.3856964,507.1305542,104.5244675,506.0074158,104.5244675z M514.5327759,91.2941208
		c-0.086731-1.244545-0.3772583-2.3763428-0.8672485-3.3953934c-0.4857178-1.0233917-1.1101685-1.9036789-1.8646851-2.6452026
		c-0.7545166-0.7371902-1.6261292-1.3139267-2.6191711-1.7302246c-0.993042-0.4162903-2.0511169-0.6201019-3.1742554-0.6201019
		c-1.1274414,0-2.1898804,0.2038116-3.1959229,0.6201019c-1.0060425,0.4162979-1.886322,0.9930344-2.6452026,1.7302246
		c-0.7545166,0.7415237-1.3616333,1.6304855-1.816925,2.6668854c-0.4596863,1.0363998-0.7328796,2.159523-0.8239441,3.3737106
		H514.5327759z"/>
	<path class="st0" d="M528.87323,104.0821533l-9.4099731-23.1346664h3.1048584l7.9486084,20.3376923l7.9963379-20.3376923h2.927063
		l-9.4143066,23.1346664H528.87323z"/>
	<path class="st0" d="M546.1060791,76.1080704v-4.4404678h3.0181274v4.4404678H546.1060791z M546.1060791,104.0821533V80.9474869
		h3.0181274v23.1346664H546.1060791z"/>
	<path class="st0" d="M555.8325806,93.3799286v-2.7969742h12.9658203v2.7969742H555.8325806z"/>
	<path class="st0" d="M604.0489502,104.0821533V78.1938705l-11.5001221,20.0254745h-1.821228L579.227478,78.1938705v25.8882828
		h-3.1091919v-31.525589h3.2002563l12.2979736,21.5778961l12.3890991-21.5778961h3.1525879v31.525589H604.0489502z"/>
	<path class="st0" d="M624.4733887,104.5244675c-1.6868286,0-3.2262573-0.3165588-4.6182251-0.95401
		c-1.3920288-0.63311-2.5975342-1.5003891-3.6165771-2.5975037c-1.0233765-1.0927658-1.8126221-2.3676682-2.3763428-3.8160248
		c-0.5637207-1.4526901-0.8455811-2.9791031-0.8455811-4.5748978c0-1.6304855,0.2905273-3.1699066,0.8672485-4.6182556
		c0.5767212-1.4526978,1.3746338-2.723259,2.3980103-3.8203659c1.0234375-1.0927734,2.2289429-1.9687271,3.6209106-2.6191864
		c1.3876343-0.6504593,2.9140625-0.9756851,4.5705566-0.9756851c1.6608276,0,3.1915894,0.3252258,4.5966187,0.9756851
		c1.4049683,0.6504593,2.6191406,1.526413,3.6425171,2.6191864c1.019104,1.0971069,1.8212891,2.3676682,2.3980713,3.8203659
		c0.5767212,1.448349,0.862915,2.9877701,0.862915,4.6182556c0,1.5957947-0.2818604,3.1222076-0.8412476,4.5748978
		c-0.5637207,1.4483566-1.3529663,2.723259-2.3763428,3.8160248c-1.019043,1.0971146-2.2332764,1.9643936-3.6425781,2.5975037
		C627.708374,104.2079086,626.1602783,104.5244675,624.4733887,104.5244675z M616.0824585,92.6253967
		c0,1.3052521,0.2211914,2.5107727,0.6678467,3.6208878c0.4422607,1.1101227,1.0407104,2.0858078,1.7952271,2.9270706
		c0.7545166,0.8455963,1.6434937,1.5047302,2.6668701,1.9773941c1.019104,0.4726639,2.1075439,0.7111664,3.2609863,0.7111664
		c1.1578369,0,2.2419434-0.242836,3.2653198-0.7328491c1.019043-0.4900131,1.916687-1.1534805,2.6842041-1.9990768
		c0.7719116-0.8412628,1.3789673-1.8256226,1.8212891-2.9530869c0.4466553-1.1231232,0.6678467-2.3373184,0.6678467-3.638237
		c0-1.2748947-0.2211914-2.4804153-0.6678467-3.6208878c-0.4423218-1.1404724-1.0493774-2.1291656-1.8212891-2.9747696
		c-0.7675171-0.8455963-1.6651611-1.5090637-2.6842041-1.9990768c-1.0233765-0.485672-2.1074829-0.7328491-3.2653198-0.7328491
		c-1.1534424,0-2.2332153,0.2471771-3.2392578,0.7328491c-1.0060425,0.4900131-1.8950195,1.1621552-2.6669312,2.0207596
		c-0.7675171,0.8586121-1.3746338,1.8603134-1.8168945,2.9964523
		C616.3036499,90.1016159,616.0824585,91.3244781,616.0824585,92.6253967z"/>
	<path class="st0" d="M660.9771729,104.0821533h-3.0181274V91.1596985c0-2.7536163-0.4076538-4.7526932-1.2228394-5.9929047
		c-0.8152466-1.244545-2.0641479-1.8646469-3.7510376-1.8646469c-0.888916,0-1.7778931,0.1604462-2.6625366,0.4856796
		c-0.888916,0.3295593-1.7128296,0.7848816-2.4674072,1.3789673c-0.7545166,0.5897522-1.4266357,1.2922516-2.020752,2.1074905
		c-0.5897217,0.8152466-1.019043,1.6955338-1.2879028,2.6408615v14.1670074h-3.0181274V80.9474869h2.7536011v5.2383652
		c0.9453125-1.6868591,2.3026123-3.0484848,4.0632324-4.0848846c1.7605591-1.0363998,3.6772461-1.5524292,5.750061-1.5524292
		c1.2705688,0,2.3546143,0.2385025,3.2392578,0.7111664c0.8889771,0.4726715,1.6001587,1.1404724,2.1334839,1.9947433
		c0.5333862,0.8629379,0.914978,1.9123459,1.1535034,3.1525574c0.2385254,1.244545,0.3555908,2.6235199,0.3555908,4.1325836
		V104.0821533z"/>
	<path class="st0" d="M678.7824097,102.9720383c-0.1777954,0.0867233-0.4379883,0.2081451-0.7762451,0.3555832
		c-0.3425293,0.147438-0.7328491,0.2948761-1.1794434,0.4423065c-0.4423218,0.1517792-0.9453735,0.281868-1.5090942,0.3989487
		c-0.5593872,0.1214218-1.1535034,0.1777954-1.7735596,0.1777954c-0.6548462,0-1.2749023-0.086731-1.8646851-0.2645187
		c-0.5940552-0.1777954-1.1101074-0.4509888-1.5567627-0.8195801c-0.4423218-0.3729324-0.7979126-0.8369217-1.0667725-1.4006577
		c-0.2644653-0.5637283-0.3989258-1.2141876-0.3989258-1.9557114V83.3455124h-3.1959229v-2.3980255h3.1959229v-7.8141861h3.0224609
		v7.8141861h5.3251343v2.3980255h-5.3251343v15.719429c0.0563965,0.8586044,0.3599243,1.4873886,0.9106445,1.8863297
		c0.5463867,0.3989487,1.1751709,0.5984268,1.8863525,0.5984268c0.8585815,0,1.6130981-0.1387634,2.2636108-0.4206314
		c0.6504517-0.281868,1.0667114-0.4813385,1.2445068-0.5984192L678.7824097,102.9720383z"/>
	<path class="st0" d="M688.8601685,104.5244675c-1.0927734,0-2.1074829-0.1821289-3.0397949-0.5550613
		c-0.932312-0.3685913-1.7475586-0.8802872-2.4414062-1.5307465c-0.6981201-0.6504593-1.2358398-1.4136658-1.6217651-2.2852783
		c-0.3859863-0.8759537-0.5767822-1.8126144-0.5767822-2.8186569c0-1.0060501,0.2341919-1.9427109,0.7111816-2.8013153
		c0.4726562-0.8586044,1.1361084-1.5957947,1.9990845-2.2202301c0.854248-0.6201096,1.8776855-1.1014481,3.0614624-1.4396896
		c1.1838379-0.3425751,2.4891357-0.5116882,3.9071045-0.5116882c1.1838379,0,2.3850098,0.1040726,3.5992432,0.3122177
		c1.2141724,0.2038116,2.2939453,0.5030212,3.2392578,0.8846283v-2.0858078c0-2.0424423-0.5767212-3.6642532-1.7302246-4.8610992
		c-1.1534424-1.2011795-2.7536011-1.7996063-4.7960205-1.7996063c-1.1838379,0-2.3980713,0.2385025-3.6425781,0.7111664
		c-1.2402344,0.4726715-2.5021362,1.1534882-3.7727051,2.0424423l-1.0667114-1.9990768
		c2.9921265-2.012085,5.8887939-3.0181274,8.703125-3.0181274c2.901062,0,5.1820068,0.815239,6.838501,2.441391
		c1.6564941,1.6304855,2.4890747,3.8767319,2.4890747,6.7474289v10.4376984c0,0.8282547,0.3685913,1.2445526,1.1101074,1.2445526
		v2.6625443c-0.5073242,0.0867233-0.888916,0.1344299-1.1577759,0.1344299c-0.7675781,0-1.3703003-0.195137-1.7952881-0.5767441
		c-0.4293213-0.3859406-0.6591187-0.9193115-0.6894531-1.6001282l-0.0910645-1.8212891
		c-1.062439,1.391983-2.4024048,2.4587402-4.0155029,3.1959229
		C692.4637451,104.1558685,690.729187,104.5244675,688.8601685,104.5244675z M689.5713501,102.2174988
		c1.5697632,0,3.0137939-0.2948685,4.3320923-0.8889542c1.3139038-0.5897522,2.3156128-1.3746414,2.9963989-2.3546677
		c0.2645264-0.2645187,0.4640503-0.5550537,0.5984497-0.8629379c0.1343994-0.3122253,0.1994629-0.6027603,0.1994629-0.8672791
		V93.470993c-1.0060425-0.3859406-2.0510864-0.6808167-3.1308594-0.8889618s-2.1812134-0.3122177-3.3086548-0.3122177
		c-2.1292114,0-3.859436,0.4466476-5.1950073,1.3312683c-1.3312988,0.8889618-1.994751,2.0597916-1.994751,3.5081482
		c0,0.7111664,0.1387329,1.3789749,0.4205933,1.9990768c0.2819214,0.6201019,0.6635132,1.1621552,1.1535034,1.6218109
		s1.071106,0.8195801,1.7562256,1.0884323C688.0753174,102.0830765,688.803833,102.2174988,689.5713501,102.2174988z"/>
	<path class="st0" d="M707.8709717,71.6676025h3.0181274v27.1761856c0,0.8586044,0.2384644,1.5307465,0.7111206,2.0207596
		c0.4727173,0.485672,1.1405029,0.7328491,1.9990845,0.7328491c0.3252563,0,0.7111816-0.047699,1.1535034-0.1344299
		c0.4423218-0.0910645,0.8585815-0.2081451,1.2445679-0.3555832l0.5333252,2.441391
		c-0.5637207,0.2385025-1.2531738,0.429306-2.0684204,0.5767441c-0.8109131,0.147438-1.5177612,0.2211533-2.1074829,0.2211533
		c-1.3920288,0-2.4848022-0.390274-3.2869873-1.1751633c-0.7979126-0.7848892-1.1968384-1.8863297-1.1968384-3.30867V71.6676025z"/>
	<path class="st0" d="M718.6989136,92.4476013c0-1.6261444,0.2818604-3.1655655,0.8455811-4.6182556
		c0.5637817-1.4483566,1.3529663-2.7145844,2.3763428-3.7943497c1.019104-1.0797577,2.2419434-1.9340286,3.6643066-2.5541382
		c1.4179688-0.6244354,2.9877319-0.9323196,4.7049561-0.9323196c2.1898804,0,4.0979004,0.4943466,5.7283936,1.487381
		c1.6261597,0.9930344,2.857666,2.3286438,3.6859131,4.0198364l-2.9313965,0.9323273
		c-0.6504517-1.1838379-1.5610962-2.111824-2.7319336-2.7752914c-1.1665039-0.6678085-2.4630737-1.001709-3.885376-1.001709
		c-1.1838379,0-2.2852783,0.2385025-3.3087158,0.7111664c-1.019043,0.4726715-1.907959,1.1187897-2.6625366,1.9296951
		c-0.7545166,0.8152466-1.3486328,1.7865982-1.7778931,2.9097214c-0.4293213,1.1274643-0.6417847,2.3546677-0.6417847,3.685936
		c0,1.3052597,0.2211304,2.5324554,0.6677856,3.685936c0.4423218,1.1534805,1.0494385,2.1551895,1.8169556,2.9964523
		c0.7718506,0.8455963,1.6651611,1.5090637,2.6885376,1.9990768c1.019104,0.4900131,2.1075439,0.7328491,3.2653198,0.7328491
		c0.7371826,0,1.4700317-0.1040726,2.1942139-0.3122177c0.7285156-0.2038116,1.4006958-0.4943466,2.020752-0.8629456
		c0.6244507-0.3729248,1.1578369-0.7935562,1.6001587-1.2662277c0.4423218-0.4726639,0.7545166-0.9756851,0.932312-1.5090637
		l2.9747925,0.8846283c-0.3252563,0.8325882-0.7979126,1.5914536-1.4223633,2.2896118
		c-0.6201172,0.6938248-1.3529663,1.3009186-2.1942139,1.8212891c-0.8455811,0.5160294-1.7778931,0.914978-2.8013306,1.196846
		c-1.019043,0.2818604-2.0770874,0.4206314-3.1741943,0.4206314c-1.6868896,0-3.2393188-0.3165588-4.6616211-0.95401
		c-1.4223633-0.63311-2.6495361-1.5090637-3.6859741-2.6191864c-1.036377-1.1101151-1.8429565-2.3893509-2.4196777-3.842041
		C718.9894409,95.6608734,718.6989136,94.1084442,718.6989136,92.4476013z"/>
	<path class="st0" d="M745.1682739,76.1080704v-4.4404678h3.0181274v4.4404678H745.1682739z M745.1682739,104.0821533V80.9474869
		h3.0181274v23.1346664H745.1682739z"/>
	<path class="st0" d="M774.7858276,104.0821533h-3.0181274V91.1596985c0-2.7536163-0.4075928-4.7526932-1.2228394-5.9929047
		c-0.8152466-1.244545-2.0641479-1.8646469-3.7509766-1.8646469c-0.8889771,0-1.7779541,0.1604462-2.6625366,0.4856796
		c-0.8889771,0.3295593-1.7128906,0.7848816-2.4674072,1.3789673c-0.7545776,0.5897522-1.4266968,1.2922516-2.020752,2.1074905
		c-0.5897827,0.8152466-1.019104,1.6955338-1.2879028,2.6408615v14.1670074h-3.0181885V80.9474869h2.7536621v5.2383652
		c0.9453125-1.6868591,2.3026123-3.0484848,4.0631714-4.0848846s3.6772461-1.5524292,5.750061-1.5524292
		c1.2705688,0,2.3546753,0.2385025,3.2393188,0.7111664c0.888916,0.4726715,1.6000977,1.1404724,2.1334839,1.9947433
		c0.5333862,0.8629379,0.914978,1.9123459,1.1535034,3.1525574c0.2384644,1.244545,0.3555298,2.6235199,0.3555298,4.1325836
		V104.0821533z"/>
	<path class="st0" d="M781.7110596,76.1080704v-4.4404678h3.0181274v4.4404678H781.7110596z M781.7110596,104.0821533V80.9474869
		h3.0181274v23.1346664H781.7110596z"/>
</g>
</svg>
